<svg xmlns="http://www.w3.org/2000/svg" id="Layer_1" data-name="Layer 1" viewBox="0 0 234 216"><defs><style>.cls-1{fill:#fff;}</style></defs><g id="Capa_1"><g id="_1612742543376" data-name=" 1612742543376"><path class="cls-1" d="M176.06,8.69h41.6l-9.4,23.5h22.8l-12.4,31.9h-21.8l-18.1,42.3h36.3l-12.4,37.9L147,144s-19.1-3.7-10.7-28.2c8.2-24.5,39.8-107.1,39.8-107.1Z"></path><path class="cls-1" d="M132,142.79c.9-.1.2,0,0,0h-1a7.57,7.57,0,0,1-1.5-.1c-.2,0-.7-.1,0,0a.6.6,0,0,1-.4-.1c-.3-.1-.6-.1-1-.2l-.9-.3c-.2-.1-.3-.1-.5-.2s.4.2.1,0c-.1,0-.2-.1-.3-.1a4.05,4.05,0,0,1-.9-.5c-.1-.1-.3-.2-.4-.3s-.1-.1-.2-.2c.4.3.1.1,0,0a3,3,0,0,1-.8-.8l-.4-.4c.4.4-.1-.2-.2-.3-.2-.4-.4-.7-.6-1.1,0-.1-.2-.4,0,0,0-.1-.1-.2-.1-.3-.1-.3-.2-.5-.3-.8a8,8,0,0,1-.3-1.5c0-.1-.1-.5,0-.1v-.4c0-.3-.1-.7-.1-1a17.56,17.56,0,0,1,.3-4.1,51.32,51.32,0,0,1,2.6-9.5c1.4-3.9,2.9-7.8,4.3-11.7q6-16,12.3-32.1c4.5-11.5,8.9-23,13.4-34.5,3.4-8.6,6.8-17.3,10.2-25.9.9-2.4,1.9-4.8,2.8-7.2a1.74,1.74,0,0,0-1.2-2.1,1.66,1.66,0,0,0-2.1,1.2c-1.6,4-3.2,8.1-4.8,12.1-3.8,9.7-7.6,19.3-11.4,29-4.5,11.6-9.1,23.3-13.6,34.9-3.8,9.9-7.6,19.9-11.3,29.9-1.8,4.8-3.8,9.7-4.6,14.8-.8,4.7-.7,10.2,2.8,13.9,2.7,2.8,7.1,3.8,10.9,3.3A1.74,1.74,0,0,0,134,144a1.64,1.64,0,0,0-2-1.2Z"></path><path class="cls-1" d="M110.66,8.59c-3.9,9.8-8,19.6-12.1,29.4s-8.2,19.9-12.2,29.8-8.1,19.8-12.2,29.7c-2,4.9-4.1,9.8-6.1,14.8s-4,9.6-5.9,14.5a34.36,34.36,0,0,0-2.8,10.9c-.2,3.6,1.3,7.3,5.1,8.3,2.1.5,3-2.8.9-3.3a4.33,4.33,0,0,1-.5-.1c-.5-.2.2.1-.2-.1a.76.76,0,0,0-.4-.2c-.4-.3.2.2-.1-.1l-.3-.3s-.3-.4-.1-.1a.76.76,0,0,1-.2-.4c0-.1-.3-.6-.2-.3l-.3-.9c0-.2-.1-.3-.1-.5-.1-.5,0,.3,0-.2a8.1,8.1,0,0,1,0-2.2c.1-.8.1-1,.2-1.8a16,16,0,0,1,.5-2.1,32.78,32.78,0,0,1,1.7-5c1.8-4.9,4-9.6,5.9-14.5s4-9.8,6.1-14.8q12.15-29.85,24.4-59.5c4.1-10,8.3-19.9,12.3-30a1.74,1.74,0,0,0-1.2-2.1,1.61,1.61,0,0,0-2.2,1.1Z"></path><path class="cls-1" d="M81.46,8.39c-8,19.8-16.2,39.5-24.3,59.3-4.1,9.9-8.1,19.8-12.2,29.8-2,4.9-4.1,9.8-6.1,14.8s-4,9.7-5.9,14.5a34.36,34.36,0,0,0-2.8,10.9c-.2,3.6,1.3,7.3,5.1,8.3,2.1.5,3-2.8.9-3.3a4.33,4.33,0,0,1-.5-.1c-.5-.2.2.1-.2-.1a.76.76,0,0,0-.4-.2c-.4-.3.2.2-.1-.1l-.3-.3s-.3-.4-.1-.1a.76.76,0,0,1-.2-.4c0-.1-.3-.6-.2-.3l-.3-.9c0-.2-.1-.3-.1-.5-.1-.5,0,.3,0-.2a8.1,8.1,0,0,1,0-2.2c.1-.8.1-1,.2-1.8a16,16,0,0,1,.5-2.1,32.78,32.78,0,0,1,1.7-5c1.8-4.9,4-9.7,5.9-14.5s4-9.8,6.1-14.8q12.15-29.85,24.4-59.6c4.1-10,8.3-20,12.3-30a1.74,1.74,0,0,0-1.2-2.1,1.51,1.51,0,0,0-2.2,1Z"></path><path class="cls-1" d="M54.26,8.39c-8,19.8-16.2,39.5-24.3,59.3-4,9.9-8.1,19.8-12.2,29.8-2,4.9-4.1,9.8-6.1,14.8s-4,9.7-5.9,14.5A34.36,34.36,0,0,0,3,137.69c-.2,3.6,1.3,7.3,5.1,8.3,2.1.5,3-2.8.9-3.3a4.33,4.33,0,0,1-.5-.1c-.5-.2.2.1-.2-.1a.76.76,0,0,0-.4-.2c-.4-.3.2.2-.1-.1l-.3-.3s-.3-.4-.1-.1a.76.76,0,0,1-.2-.4c0-.1-.3-.6-.2-.3l-.3-.9c0-.2-.1-.3-.1-.5-.1-.5,0,.3,0-.2a8.1,8.1,0,0,1,0-2.2c.1-.8.1-1,.2-1.8a16,16,0,0,1,.5-2.1,48.26,48.26,0,0,1,1.6-5c1.8-4.9,4-9.7,5.9-14.5s4-9.8,6.1-14.8q12.15-30,24.4-59.8l12.3-30a1.74,1.74,0,0,0-1.2-2.1,1.66,1.66,0,0,0-2.1,1.2Z"></path><path class="cls-1" d="M149.66,8.39c-1.1,3-2.3,6-3.4,9.1-2.9,7.5-5.7,15.1-8.6,22.6-3.7,9.8-7.4,19.5-11.1,29.3s-7.4,19.4-11,29.1c-2.8,7.4-5.6,14.8-8.4,22.1l-2.4,6.3c-.2.5-.4,1.1-.6,1.6,0,.1-.1.2-.1.4v.1c.3-.9.1-.1-.1.1a20.81,20.81,0,0,0-1.5,7.8,9.06,9.06,0,0,0,7.1,9.1c2.1.5,3-2.8.9-3.3a5.41,5.41,0,0,1-3.2-1.8l-.3-.3c.2.3,0-.1-.1-.1a2.51,2.51,0,0,1-.4-.7c0-.1-.2-.5-.1-.1a.6.6,0,0,1-.1-.4c-.1-.3-.2-.6-.3-1,0-.1-.1-.3-.1-.4-.1-.5,0,.4,0-.1a2,2,0,0,0-.1-.8,10.87,10.87,0,0,1,.1-1.8v-.4c.1-.5-.1.4,0-.1,0-.3.1-.5.1-.8a8.33,8.33,0,0,1,.4-1.5c.2-.7.4-1.4.6-2a.76.76,0,0,1,.2-.4c-.3.7-.1.3,0,0a6.89,6.89,0,0,1,.3-.8c1.7-4.6,3.5-9.2,5.2-13.8,3.2-8.4,6.4-16.9,9.6-25.3l11.4-30c3.5-9.3,7-18.5,10.5-27.8,2.4-6.3,4.7-12.5,7.1-18.8.5-1.4,1-2.7,1.6-4.1a1.74,1.74,0,0,0-1.2-2.1,1.62,1.62,0,0,0-2,1.1Z"></path><path class="cls-1" d="M133.46,8.39c-1.1,3-2.3,6-3.4,9.1-2.9,7.5-5.7,15.1-8.6,22.6-3.7,9.8-7.4,19.5-11.1,29.3s-7.4,19.4-11,29.1c-2.8,7.4-5.6,14.8-8.4,22.1l-2.4,6.3c-.2.5-.4,1.1-.6,1.6,0,.1-.1.2-.1.4v.1c.3-.9.1-.1-.1.1a20.81,20.81,0,0,0-1.5,7.8,9.06,9.06,0,0,0,7.1,9.1c2.1.5,3-2.8.9-3.3a5.41,5.41,0,0,1-3.2-1.8l-.3-.3c.2.3,0-.1-.1-.1a2.51,2.51,0,0,1-.4-.7c0-.1-.2-.5-.1-.1a.6.6,0,0,1-.1-.4c-.1-.3-.2-.6-.3-1,0-.1-.1-.3-.1-.4-.1-.5,0,.4,0-.1a2,2,0,0,0-.1-.8,10.87,10.87,0,0,1,.1-1.8v-.4c.1-.5-.1.4,0-.1,0-.3.1-.5.1-.8a8.33,8.33,0,0,1,.4-1.5c.2-.7.4-1.4.6-2a.76.76,0,0,1,.2-.4c-.3.7-.1.3,0,0a6.89,6.89,0,0,1,.3-.8c1.7-4.6,3.5-9.2,5.2-13.8,3.2-8.4,6.4-16.9,9.6-25.3,3.8-10,7.6-20,11.3-30,3.5-9.3,7-18.5,10.5-27.8,2.4-6.3,4.7-12.5,7.1-18.8.5-1.4,1-2.7,1.6-4.1a1.74,1.74,0,0,0-1.2-2.1,1.56,1.56,0,0,0-1.9,1.1Z"></path><polygon class="cls-1" points="18.86 181.69 18.86 158.59 7.46 158.59 7.46 153.89 38.16 153.89 38.16 158.59 26.76 158.59 26.76 181.69 18.86 181.69"></polygon><polygon class="cls-1" points="43.16 181.69 43.16 153.89 71.86 153.89 71.86 158.59 50.96 158.59 50.96 164.79 70.46 164.79 70.46 169.39 50.96 169.39 50.96 176.99 72.56 176.99 72.56 181.69 43.16 181.69"></polygon><polygon class="cls-1" points="79.46 181.69 79.46 154.09 87.26 154.09 87.26 176.99 106.66 176.99 106.66 181.69 79.46 181.69"></polygon><path class="cls-1" d="M137,171.49l7.6,1.7a13,13,0,0,1-5.8,6.8,21,21,0,0,1-10.3,2.2c-5.1,0-9.4-1.3-12.7-3.8a12.4,12.4,0,0,1-5-10.4,13,13,0,0,1,5-10.8c3.3-2.6,7.7-3.8,13.1-3.8,4.7,0,8.6,1,11.5,3a10.81,10.81,0,0,1,4,5.1l-7.7,1.3a6,6,0,0,0-2.9-3.4,10.93,10.93,0,0,0-5.3-1.3,10.49,10.49,0,0,0-7,2.2q-2.7,2.25-2.7,7.2c0,3.5.9,6,2.6,7.5a10.21,10.21,0,0,0,6.9,2.2,10.32,10.32,0,0,0,5.4-1.4,6.7,6.7,0,0,0,3.3-4.3Z"></path><path class="cls-1" d="M149.66,168a13.13,13.13,0,0,1,1.8-7.1,14.34,14.34,0,0,1,3.6-3.8,15.65,15.65,0,0,1,5-2.5,29.79,29.79,0,0,1,8.3-1.1c5.7,0,10.3,1.3,13.7,3.8a12.47,12.47,0,0,1,5.1,10.6,12.28,12.28,0,0,1-5.1,10.5c-3.4,2.5-7.9,3.8-13.6,3.8s-10.3-1.3-13.7-3.8a12.23,12.23,0,0,1-5.1-10.4Zm8.1-.2a8.8,8.8,0,0,0,3,7.2,13.55,13.55,0,0,0,15.4,0c2-1.6,3-4,3-7.3s-1-5.6-2.9-7.1a11.63,11.63,0,0,0-7.7-2.4,12.11,12.11,0,0,0-7.8,2.4c-2.1,1.6-3,4-3,7.2Z"></path><path class="cls-1" d="M193.26,181.69v-27.8h16.4a39.43,39.43,0,0,1,9,.7,8.56,8.56,0,0,1,4.5,2.7,6.56,6.56,0,0,1,1.7,4.4,6.49,6.49,0,0,1-2.6,5.2c-1.7,1.4-4.3,2.2-7.6,2.6a20.29,20.29,0,0,1,4.2,2.3,31.49,31.49,0,0,1,4.4,4.5l4.7,5.4h-9.3l-5.6-6.1a49.16,49.16,0,0,0-4.1-4.1,5.67,5.67,0,0,0-2.3-1.2,17.87,17.87,0,0,0-3.9-.3h-1.6v11.6l-7.9.1Zm7.9-16.1H207a46.69,46.69,0,0,0,7-.3,4,4,0,0,0,2.2-1.2,3.23,3.23,0,0,0,.8-2.1,2.9,2.9,0,0,0-1-2.3,5.88,5.88,0,0,0-2.9-1.1c-.6-.1-2.5-.1-5.7-.1h-6.1l-.1,7.1Z"></path><polygon class="cls-1" points="27.36 206.19 27.36 189.59 40.46 189.59 40.46 192.39 30.96 192.39 30.96 196.09 39.76 196.09 39.76 198.89 30.96 198.89 30.96 203.39 40.76 203.39 40.76 206.19 27.36 206.19"></polygon><path class="cls-1" d="M55.46,206.19h-3.4v-6.1a11.4,11.4,0,0,0-.2-2.5,1.6,1.6,0,0,0-.7-.9,2.13,2.13,0,0,0-1.2-.3,2.86,2.86,0,0,0-2.6,1.7,8.54,8.54,0,0,0-.3,2.8v5.4h-3.4v-12h3.1v1.8a5,5,0,0,1,4.2-2,4.48,4.48,0,0,1,2,.4,3.88,3.88,0,0,1,1.4,1,5.39,5.39,0,0,1,.7,1.3,10.61,10.61,0,0,1,.2,2.1l.2,7.3Z"></path><path class="cls-1" d="M64.76,194.19v2.5h-2.3v4.8a5.39,5.39,0,0,0,.1,1.7c0,.2.1.3.3.4a1.07,1.07,0,0,0,.6.2,5,5,0,0,0,1.4-.3l.3,2.5a7.63,7.63,0,0,1-2.7.5,4.67,4.67,0,0,1-1.7-.3,3,3,0,0,1-1.1-.7,3.34,3.34,0,0,1-.5-1.2,11.62,11.62,0,0,1-.1-2.2v-5.2h-1.6v-2.5h1.6V192l3.4-1.9v4.2h2.3Z"></path><path class="cls-1" d="M74.46,202.39l3.4.5a5.14,5.14,0,0,1-2.1,2.7,6.27,6.27,0,0,1-3.5.9,5.69,5.69,0,0,1-4.9-2.1,6.91,6.91,0,0,1-1.3-4.1,6.43,6.43,0,0,1,1.7-4.7,5.73,5.73,0,0,1,4.2-1.7,5.8,5.8,0,0,1,4.5,1.8c1.1,1.2,1.6,3,1.6,5.4h-8.5a3.11,3.11,0,0,0,.8,2.2,2.73,2.73,0,0,0,1.9.8,1.84,1.84,0,0,0,1.3-.4,2.07,2.07,0,0,0,.9-1.3Zm.2-3.3a2.86,2.86,0,0,0-.8-2.1,2.41,2.41,0,0,0-1.8-.7,2.5,2.5,0,0,0-1.8.8,2.82,2.82,0,0,0-.7,2.1h5.1Z"></path><path class="cls-1" d="M87.66,206.19v-16.6h7.5a13.51,13.51,0,0,1,4.1.4,4.12,4.12,0,0,1,2.1,1.6,4.7,4.7,0,0,1,.8,2.6,4.3,4.3,0,0,1-1.2,3.1,5.69,5.69,0,0,1-3.5,1.5,7.21,7.21,0,0,1,1.9,1.4,15.52,15.52,0,0,1,2,2.7l2.2,3.2h-4.3l-2.6-3.6a12.73,12.73,0,0,0-1.9-2.4,2.59,2.59,0,0,0-1.1-.7,7.45,7.45,0,0,0-1.8-.2h-.7v6.9l-3.5.1Zm3.6-9.6h2.6a17.26,17.26,0,0,0,3.2-.2,1.83,1.83,0,0,0,1-.7,2.14,2.14,0,0,0,.4-1.2,2.17,2.17,0,0,0-.5-1.4,2,2,0,0,0-1.3-.6c-.3,0-1.2-.1-2.6-.1h-2.8v4.2Z"></path><path class="cls-1" d="M112.86,202.39l3.4.5a5.14,5.14,0,0,1-2.1,2.7,6.27,6.27,0,0,1-3.5.9,5.69,5.69,0,0,1-4.9-2.1,6.91,6.91,0,0,1-1.3-4.1,6.43,6.43,0,0,1,1.7-4.7,5.73,5.73,0,0,1,4.2-1.7,5.8,5.8,0,0,1,4.5,1.8c1.1,1.2,1.6,3,1.6,5.4H108a3.11,3.11,0,0,0,.8,2.2,2.73,2.73,0,0,0,1.9.8,1.84,1.84,0,0,0,1.3-.4,2.54,2.54,0,0,0,.9-1.3Zm.2-3.3a2.86,2.86,0,0,0-.8-2.1,2.41,2.41,0,0,0-1.8-.7,2.5,2.5,0,0,0-1.8.8,2.82,2.82,0,0,0-.7,2.1h5.1Z"></path><path class="cls-1" d="M118.86,207l3.9.4a1.88,1.88,0,0,0,.4.9,2.81,2.81,0,0,0,1.5.3,3.74,3.74,0,0,0,2-.4,1.85,1.85,0,0,0,.7-.8,4.87,4.87,0,0,0,.2-1.5v-1.8a4.6,4.6,0,0,1-3.8,1.9,4.81,4.81,0,0,1-4.1-2.1,6.55,6.55,0,0,1-1.2-4,6.37,6.37,0,0,1,1.5-4.6,4.92,4.92,0,0,1,3.8-1.6,4.74,4.74,0,0,1,3.9,2V194h3.2v11a8.88,8.88,0,0,1-.4,3.2,3.37,3.37,0,0,1-1.1,1.7,5.08,5.08,0,0,1-1.8.9,11.74,11.74,0,0,1-2.9.3,7.55,7.55,0,0,1-4.6-1.1,3.32,3.32,0,0,1-1.4-2.7c.2,0,.2-.2.2-.3Zm3-7.1a4.25,4.25,0,0,0,.8,2.8,2.46,2.46,0,0,0,1.9.9,2.88,2.88,0,0,0,2.1-.9,3.67,3.67,0,0,0,.9-2.7,4.45,4.45,0,0,0-.8-2.8,2.58,2.58,0,0,0-2.1-.9,2.52,2.52,0,0,0-2,.9A4.14,4.14,0,0,0,121.86,199.89Z"></path><path class="cls-1" d="M142.66,206.19v-1.8a5.17,5.17,0,0,1-1.8,1.5,5.33,5.33,0,0,1-2.4.6,5.56,5.56,0,0,1-2.3-.5,3.61,3.61,0,0,1-1.5-1.5,6.16,6.16,0,0,1-.5-2.7v-7.6h3.4v5.5a15.87,15.87,0,0,0,.2,3.1,1.6,1.6,0,0,0,.7.9,2.27,2.27,0,0,0,1.3.3,2.93,2.93,0,0,0,1.6-.4,1.86,1.86,0,0,0,.9-1.1,9.86,9.86,0,0,0,.3-3.2v-5.1H146v12Z"></path><polygon class="cls-1" points="149.26 206.19 149.26 189.59 152.66 189.59 152.66 206.19 149.26 206.19"></polygon><path class="cls-1" d="M158.66,197.79l-3.1-.5a4.14,4.14,0,0,1,1.8-2.6,6.52,6.52,0,0,1,3.8-.8,9.75,9.75,0,0,1,3.4.5,3.54,3.54,0,0,1,1.6,1.3,6.24,6.24,0,0,1,.5,2.9v3.7a11.32,11.32,0,0,0,.2,2.3,6.39,6.39,0,0,0,.6,1.6h-3.4a4.65,4.65,0,0,1-.3-.9.76.76,0,0,1-.1-.4,7.61,7.61,0,0,1-1.9,1.2,5.22,5.22,0,0,1-2.1.4,4.29,4.29,0,0,1-3.1-1,3.07,3.07,0,0,1-1.1-2.5,3.45,3.45,0,0,1,.5-1.8,3.09,3.09,0,0,1,1.5-1.2,10.3,10.3,0,0,1,2.7-.7,15.61,15.61,0,0,0,3.3-.8V198a1.58,1.58,0,0,0-.5-1.3,3.84,3.84,0,0,0-3.2-.1,2.13,2.13,0,0,0-1.1,1.2Zm4.5,2.6c-.4.1-1.1.3-2.1.5a5.1,5.1,0,0,0-1.8.6,1.51,1.51,0,0,0-.7,1.1,2.08,2.08,0,0,0,.5,1.2,2.11,2.11,0,0,0,1.3.5,2.72,2.72,0,0,0,1.7-.6,1.78,1.78,0,0,0,.8-1.1,6.22,6.22,0,0,0,.1-1.6l.2-.6Z"></path><path class="cls-1" d="M181.56,206.19h-3.1v-1.8a4.28,4.28,0,0,1-1.8,1.5,5.45,5.45,0,0,1-2.2.5,5.17,5.17,0,0,1-3.8-1.7,6.84,6.84,0,0,1-1.6-4.7,6.37,6.37,0,0,1,1.5-4.6,5.2,5.2,0,0,1,7.6.1v-6h3.4v16.7Zm-9-6.3a5.06,5.06,0,0,0,.6,2.8,2.56,2.56,0,0,0,2.3,1.2,2.66,2.66,0,0,0,2-.9,4.45,4.45,0,0,0,.8-2.8,4.68,4.68,0,0,0-.8-3,2.67,2.67,0,0,0-4,0A3.67,3.67,0,0,0,172.56,199.89Z"></path><path class="cls-1" d="M184.16,200a6.81,6.81,0,0,1,.8-3.1,5.92,5.92,0,0,1,2.4-2.3,7.73,7.73,0,0,1,3.4-.8,6.81,6.81,0,0,1,4.8,1.8,6.19,6.19,0,0,1,1.9,4.5,5.83,5.83,0,0,1-1.9,4.5,6.41,6.41,0,0,1-4.7,1.8,8,8,0,0,1-3.4-.7,4.71,4.71,0,0,1-2.4-2.2,6.27,6.27,0,0,1-.9-3.5Zm3.5.2a3.67,3.67,0,0,0,.9,2.7,3,3,0,0,0,2.2,1,2.7,2.7,0,0,0,2.2-1,3.93,3.93,0,0,0,.9-2.8,3.67,3.67,0,0,0-.9-2.7,3,3,0,0,0-2.2-1,2.7,2.7,0,0,0-2.2,1A4.1,4.1,0,0,0,187.66,200.19Z"></path><path class="cls-1" d="M203.26,206.19h-3.4v-12H203v1.7a4.68,4.68,0,0,1,1.5-1.6,2.6,2.6,0,0,1,1.5-.4,4.28,4.28,0,0,1,2.2.6l-1.1,2.8a3.68,3.68,0,0,0-1.6-.5,1.59,1.59,0,0,0-1.2.4,2.64,2.64,0,0,0-.8,1.3,16.52,16.52,0,0,0-.3,4l.1,3.7Z"></path></g></g></svg>